<svg width="2732" height="2732" viewBox="0 0 2732 2732" fill="none" xmlns="http://www.w3.org/2000/svg">
  <rect width="2732" height="2732" fill="#4F46E5"/>
  <path d="M1366 1066C1224.5 1066 1110 1180.5 1110 1322C1110 1463.5 1224.5 1578 1366 1578C1507.5 1578 1622 1463.5 1622 1322C1622 1180.5 1507.5 1066 1366 1066ZM1366 1642C1189.3 1642 1046 1498.7 1046 1322C1046 1145.3 1189.3 1002 1366 1002C1542.7 1002 1686 1145.3 1686 1322C1686 1498.7 1542.7 1642 1366 1642Z" fill="white"/>
  <circle cx="1366" cy="1322" r="120" fill="white"/>
  <text x="1366" y="2000" font-family="Arial, sans-serif" font-size="120" fill="white" text-anchor="middle" letter-spacing="10">OLIN</text>
</svg>

